<?xml version="1.0" encoding="utf-8"?>
<svg version="1.1" id="Layer_1" xmlns="http://www.w3.org/2000/svg" xmlns:xlink="http://www.w3.org/1999/xlink" x="0px"
     y="0px" viewBox="0 0 122.88 122.88" style="enable-background:new 0 0 122.88 122.88" xml:space="preserve"><style type="text/css">.st0{fill:#587702;} .st1{fill:#D83621;}</style>
    <g><path class="st0" d="M103.17,0.59c13.45,13.98,20.01,32.18,19.7,50.39c-0.31,18.21-7.47,36.42-21.47,50.41 c-13.99,13.99-32.2,21.16-50.41,21.47c-18.25,0.31-36.49-6.28-50.48-19.79c-0.65-0.63-0.67-1.67-0.05-2.32l0.02-0.02l0,0l2.85-2.85 c12.53,11.14,28.4,16.54,44.27,16.27c16.63-0.29,33.29-6.86,46.09-19.68c12.8-12.81,19.37-29.46,19.67-46.09l0,0 c0.29-15.87-5.13-31.73-16.27-44.27l3.63-3.63c0.64-0.64,1.69-0.64,2.33,0C103.1,0.51,103.14,0.55,103.17,0.59L103.17,0.59 L103.17,0.59z"/>
        <path class="st1"
              d="M109.06,48.89c0.27-14.93-4.91-29.86-15.55-41.56L6.54,94.31c11.7,10.64,26.63,15.81,41.56,15.55 c15.42-0.27,30.86-6.36,42.73-18.24C102.69,79.74,108.78,64.31,109.06,48.89L109.06,48.89L109.06,48.89z"/>
        <path d="M49.2,91.15c0.97-0.97,2.49-1.07,3.58-0.29l-2.76,4.79c-0.3-0.13-0.58-0.32-0.82-0.56C48.11,93.99,48.11,92.23,49.2,91.15 L49.2,91.15L49.2,91.15z M28.29,91.06c0.95-0.95,2.42-1.06,3.5-0.35l-2.77,4.8c-0.26-0.13-0.51-0.3-0.73-0.52 C27.2,93.9,27.2,92.14,28.29,91.06L28.29,91.06L28.29,91.06z M72.12,66.11c1.07-1.07,2.81-1.08,3.91-0.02l-2.69,4.66 c-0.45-0.13-0.87-0.36-1.22-0.71C71.05,68.95,71.05,67.19,72.12,66.11L72.12,66.11L72.12,66.11z M64.74,46.43 c0.96-0.96,2.46-1.07,3.55-0.32l-2.77,4.8c-0.28-0.13-0.55-0.31-0.78-0.54C63.65,49.27,63.65,47.51,64.74,46.43L64.74,46.43 L64.74,46.43z M93.36,25.4c0.78-0.06,1.58,0.21,2.19,0.8c1.08,1.08,1.08,2.84,0,3.93c-0.6,0.6-1.4,0.86-2.19,0.8V25.4L93.36,25.4z M74.39,91.89c0.94-0.94,2.4-1.06,3.49-0.36l-2.77,4.8c-0.26-0.13-0.5-0.3-0.71-0.51C73.31,94.73,73.31,92.97,74.39,91.89 L74.39,91.89L74.39,91.89z M91.88,69.3c0.92-0.91,2.32-1.05,3.39-0.42l-2.78,4.81c-0.22-0.12-0.43-0.28-0.62-0.46 C90.79,72.14,90.79,70.38,91.88,69.3L91.88,69.3L91.88,69.3z M47.36,67.75c1.03-1.03,2.68-1.08,3.77-0.14l-2.73,4.73 c-0.38-0.13-0.74-0.35-1.05-0.66C46.26,70.59,46.26,68.83,47.36,67.75L47.36,67.75L47.36,67.75z M95.38,47.91 c0.4,0.13,0.78,0.35,1.1,0.67c1.08,1.08,1.08,2.84,0,3.93c-1.05,1.05-2.72,1.08-3.82,0.1L95.38,47.91L95.38,47.91z"/>
        <path d="M81.23,44.12c0.95-0.95,2.42-1.06,3.5-0.35l-2.77,4.8c-0.26-0.13-0.51-0.3-0.73-0.52C80.14,46.96,80.14,45.2,81.23,44.12 L81.23,44.12L81.23,44.12z"/></g></svg>